<svg xmlns="http://www.w3.org/2000/svg" width="1280" height="680">
  <rect width="100%" height="100%" fill="white" />
  <text x="70" y="24" font-size="18" font-family="Arial, sans-serif" fill="#111">Equity Curves</text>
  <text x="70" y="46" font-size="13" font-family="Arial, sans-serif" fill="#555">Quarterly long, short, and long-short NAV from a 1.0 starting point</text>

  <line x1="70" y1="540" x2="1240" y2="540" stroke="#999" />
  <line x1="70" y1="40" x2="70" y2="540" stroke="#999" />
  <line x1="70" y1="540.00" x2="1240" y2="540.00" stroke="#ececec" /><text x="60" y="544.00" font-size="11" text-anchor="end" font-family="Arial, sans-serif" fill="#444">0.65</text><line x1="70" y1="440.00" x2="1240" y2="440.00" stroke="#ececec" /><text x="60" y="444.00" font-size="11" text-anchor="end" font-family="Arial, sans-serif" fill="#444">0.83</text><line x1="70" y1="340.00" x2="1240" y2="340.00" stroke="#ececec" /><text x="60" y="344.00" font-size="11" text-anchor="end" font-family="Arial, sans-serif" fill="#444">1.01</text><line x1="70" y1="240.00" x2="1240" y2="240.00" stroke="#ececec" /><text x="60" y="244.00" font-size="11" text-anchor="end" font-family="Arial, sans-serif" fill="#444">1.19</text><line x1="70" y1="140.00" x2="1240" y2="140.00" stroke="#ececec" /><text x="60" y="144.00" font-size="11" text-anchor="end" font-family="Arial, sans-serif" fill="#444">1.36</text><line x1="70" y1="40.00" x2="1240" y2="40.00" stroke="#ececec" /><text x="60" y="44.00" font-size="11" text-anchor="end" font-family="Arial, sans-serif" fill="#444">1.54</text>
  <line x1="70" y1="343.86" x2="1240" y2="343.86" stroke="#d0d0d0" stroke-dasharray="4,4" />
  <polyline fill="none" stroke="#1f77b4" stroke-width="2.5" points="70.00,343.86 160.00,232.41 250.00,242.56 340.00,169.01 430.00,110.91 520.00,137.14 610.00,106.27 700.00,142.88 790.00,153.62 880.00,178.17 970.00,119.16 1060.00,94.13 1150.00,40.00 1240.00,40.00" /><polyline fill="none" stroke="#ff7f0e" stroke-width="2.5" points="70.00,343.86 160.00,416.76 250.00,371.02 340.00,486.54 430.00,526.92 520.00,468.09 610.00,404.73 700.00,376.29 790.00,397.99 880.00,494.92 970.00,535.03 1060.00,540.00 1150.00,465.24 1240.00,465.24" /><polyline fill="none" stroke="#2ca02c" stroke-width="2.5" points="70.00,343.86 160.00,324.59 250.00,301.76 340.00,333.56 430.00,338.62 520.00,303.83 610.00,248.11 700.00,244.47 790.00,262.69 880.00,334.62 970.00,339.42 1060.00,334.22 1150.00,256.63 1240.00,256.63" />
  <circle cx="70.00" cy="343.86" r="4" fill="#1f77b4" /><circle cx="160.00" cy="232.41" r="4" fill="#1f77b4" /><circle cx="250.00" cy="242.56" r="4" fill="#1f77b4" /><circle cx="340.00" cy="169.01" r="4" fill="#1f77b4" /><circle cx="430.00" cy="110.91" r="4" fill="#1f77b4" /><circle cx="520.00" cy="137.14" r="4" fill="#1f77b4" /><circle cx="610.00" cy="106.27" r="4" fill="#1f77b4" /><circle cx="700.00" cy="142.88" r="4" fill="#1f77b4" /><circle cx="790.00" cy="153.62" r="4" fill="#1f77b4" /><circle cx="880.00" cy="178.17" r="4" fill="#1f77b4" /><circle cx="970.00" cy="119.16" r="4" fill="#1f77b4" /><circle cx="1060.00" cy="94.13" r="4" fill="#1f77b4" /><circle cx="1150.00" cy="40.00" r="4" fill="#1f77b4" /><circle cx="1240.00" cy="40.00" r="4" fill="#1f77b4" /><circle cx="70.00" cy="343.86" r="4" fill="#ff7f0e" /><circle cx="160.00" cy="416.76" r="4" fill="#ff7f0e" /><circle cx="250.00" cy="371.02" r="4" fill="#ff7f0e" /><circle cx="340.00" cy="486.54" r="4" fill="#ff7f0e" /><circle cx="430.00" cy="526.92" r="4" fill="#ff7f0e" /><circle cx="520.00" cy="468.09" r="4" fill="#ff7f0e" /><circle cx="610.00" cy="404.73" r="4" fill="#ff7f0e" /><circle cx="700.00" cy="376.29" r="4" fill="#ff7f0e" /><circle cx="790.00" cy="397.99" r="4" fill="#ff7f0e" /><circle cx="880.00" cy="494.92" r="4" fill="#ff7f0e" /><circle cx="970.00" cy="535.03" r="4" fill="#ff7f0e" /><circle cx="1060.00" cy="540.00" r="4" fill="#ff7f0e" /><circle cx="1150.00" cy="465.24" r="4" fill="#ff7f0e" /><circle cx="1240.00" cy="465.24" r="4" fill="#ff7f0e" /><circle cx="70.00" cy="343.86" r="4" fill="#2ca02c" /><circle cx="160.00" cy="324.59" r="4" fill="#2ca02c" /><circle cx="250.00" cy="301.76" r="4" fill="#2ca02c" /><circle cx="340.00" cy="333.56" r="4" fill="#2ca02c" /><circle cx="430.00" cy="338.62" r="4" fill="#2ca02c" /><circle cx="520.00" cy="303.83" r="4" fill="#2ca02c" /><circle cx="610.00" cy="248.11" r="4" fill="#2ca02c" /><circle cx="700.00" cy="244.47" r="4" fill="#2ca02c" /><circle cx="790.00" cy="262.69" r="4" fill="#2ca02c" /><circle cx="880.00" cy="334.62" r="4" fill="#2ca02c" /><circle cx="970.00" cy="339.42" r="4" fill="#2ca02c" /><circle cx="1060.00" cy="334.22" r="4" fill="#2ca02c" /><circle cx="1150.00" cy="256.63" r="4" fill="#2ca02c" /><circle cx="1240.00" cy="256.63" r="4" fill="#2ca02c" />
  <circle cx="80" cy="60" r="4" fill="#1f77b4" /><text x="92" y="64" font-size="13" font-family="Arial, sans-serif" fill="#111">long_equity_curve</text><circle cx="80" cy="84" r="4" fill="#ff7f0e" /><text x="92" y="88" font-size="13" font-family="Arial, sans-serif" fill="#111">short_equity_curve</text><circle cx="80" cy="108" r="4" fill="#2ca02c" /><text x="92" y="112" font-size="13" font-family="Arial, sans-serif" fill="#111">ls_equity_curve</text>
  <text x="70.00" y="624" font-size="10" text-anchor="middle" transform="rotate(-45 70.00,624)" fill="#333">2022-12-31</text><text x="160.00" y="624" font-size="10" text-anchor="middle" transform="rotate(-45 160.00,624)" fill="#333">2023-03-31</text><text x="250.00" y="624" font-size="10" text-anchor="middle" transform="rotate(-45 250.00,624)" fill="#333">2023-06-30</text><text x="340.00" y="624" font-size="10" text-anchor="middle" transform="rotate(-45 340.00,624)" fill="#333">2023-09-30</text><text x="430.00" y="624" font-size="10" text-anchor="middle" transform="rotate(-45 430.00,624)" fill="#333">2023-12-31</text><text x="520.00" y="624" font-size="10" text-anchor="middle" transform="rotate(-45 520.00,624)" fill="#333">2024-03-31</text><text x="610.00" y="624" font-size="10" text-anchor="middle" transform="rotate(-45 610.00,624)" fill="#333">2024-06-30</text><text x="700.00" y="624" font-size="10" text-anchor="middle" transform="rotate(-45 700.00,624)" fill="#333">2024-09-30</text><text x="790.00" y="624" font-size="10" text-anchor="middle" transform="rotate(-45 790.00,624)" fill="#333">2024-12-31</text><text x="880.00" y="624" font-size="10" text-anchor="middle" transform="rotate(-45 880.00,624)" fill="#333">2025-03-31</text><text x="970.00" y="624" font-size="10" text-anchor="middle" transform="rotate(-45 970.00,624)" fill="#333">2025-06-30</text><text x="1060.00" y="624" font-size="10" text-anchor="middle" transform="rotate(-45 1060.00,624)" fill="#333">2025-09-30</text><text x="1150.00" y="624" font-size="10" text-anchor="middle" transform="rotate(-45 1150.00,624)" fill="#333">2025-12-31</text><text x="1240.00" y="624" font-size="10" text-anchor="middle" transform="rotate(-45 1240.00,624)" fill="#333">2026-03-31</text>
  <text x="640.00" y="668" font-size="13" text-anchor="middle" font-family="Arial, sans-serif" fill="#111">Quarter End</text>
  <text x="22" y="340.00" font-size="13" text-anchor="middle" transform="rotate(-90 22,340.00)" font-family="Arial, sans-serif" fill="#111">NAV</text>
</svg>