<svg xmlns="http://www.w3.org/2000/svg" width="1280" height="680">
  <rect width="100%" height="100%" fill="white" />
  <text x="70" y="24" font-size="18" font-family="Arial, sans-serif" fill="#111">Equity Curves</text>
  <text x="70" y="46" font-size="13" font-family="Arial, sans-serif" fill="#555">Quarterly long, short, and long-short NAV from a 1.0 starting point</text>

  <line x1="70" y1="540" x2="1240" y2="540" stroke="#999" />
  <line x1="70" y1="40" x2="70" y2="540" stroke="#999" />
  <line x1="70" y1="540.00" x2="1240" y2="540.00" stroke="#ececec" /><text x="60" y="544.00" font-size="11" text-anchor="end" font-family="Arial, sans-serif" fill="#444">0.71</text><line x1="70" y1="440.00" x2="1240" y2="440.00" stroke="#ececec" /><text x="60" y="444.00" font-size="11" text-anchor="end" font-family="Arial, sans-serif" fill="#444">0.85</text><line x1="70" y1="340.00" x2="1240" y2="340.00" stroke="#ececec" /><text x="60" y="344.00" font-size="11" text-anchor="end" font-family="Arial, sans-serif" fill="#444">0.98</text><line x1="70" y1="240.00" x2="1240" y2="240.00" stroke="#ececec" /><text x="60" y="244.00" font-size="11" text-anchor="end" font-family="Arial, sans-serif" fill="#444">1.11</text><line x1="70" y1="140.00" x2="1240" y2="140.00" stroke="#ececec" /><text x="60" y="144.00" font-size="11" text-anchor="end" font-family="Arial, sans-serif" fill="#444">1.25</text><line x1="70" y1="40.00" x2="1240" y2="40.00" stroke="#ececec" /><text x="60" y="44.00" font-size="11" text-anchor="end" font-family="Arial, sans-serif" fill="#444">1.38</text>
  <line x1="70" y1="325.19" x2="1240" y2="325.19" stroke="#d0d0d0" stroke-dasharray="4,4" />
  <polyline fill="none" stroke="#1f77b4" stroke-width="2.5" points="70.00,325.19 160.00,241.07 250.00,274.22 340.00,211.15 430.00,131.09 520.00,129.75 610.00,40.00 700.00,80.48 790.00,194.09 880.00,209.51 970.00,153.44 1060.00,78.47 1150.00,65.08 1240.00,65.08" /><polyline fill="none" stroke="#ff7f0e" stroke-width="2.5" points="70.00,325.19 160.00,321.37 250.00,282.08 340.00,393.48 430.00,440.01 520.00,424.99 610.00,479.72 700.00,501.63 790.00,503.67 880.00,537.24 970.00,530.08 1060.00,540.00 1150.00,516.65 1240.00,516.65" /><polyline fill="none" stroke="#2ca02c" stroke-width="2.5" points="70.00,325.19 160.00,281.22 250.00,276.29 340.00,300.95 430.00,291.56 520.00,281.72 610.00,277.55 700.00,307.83 790.00,352.94 880.00,380.51 970.00,353.42 1060.00,330.71 1150.00,309.42 1240.00,309.42" />
  <circle cx="70.00" cy="325.19" r="4" fill="#1f77b4" /><circle cx="160.00" cy="241.07" r="4" fill="#1f77b4" /><circle cx="250.00" cy="274.22" r="4" fill="#1f77b4" /><circle cx="340.00" cy="211.15" r="4" fill="#1f77b4" /><circle cx="430.00" cy="131.09" r="4" fill="#1f77b4" /><circle cx="520.00" cy="129.75" r="4" fill="#1f77b4" /><circle cx="610.00" cy="40.00" r="4" fill="#1f77b4" /><circle cx="700.00" cy="80.48" r="4" fill="#1f77b4" /><circle cx="790.00" cy="194.09" r="4" fill="#1f77b4" /><circle cx="880.00" cy="209.51" r="4" fill="#1f77b4" /><circle cx="970.00" cy="153.44" r="4" fill="#1f77b4" /><circle cx="1060.00" cy="78.47" r="4" fill="#1f77b4" /><circle cx="1150.00" cy="65.08" r="4" fill="#1f77b4" /><circle cx="1240.00" cy="65.08" r="4" fill="#1f77b4" /><circle cx="70.00" cy="325.19" r="4" fill="#ff7f0e" /><circle cx="160.00" cy="321.37" r="4" fill="#ff7f0e" /><circle cx="250.00" cy="282.08" r="4" fill="#ff7f0e" /><circle cx="340.00" cy="393.48" r="4" fill="#ff7f0e" /><circle cx="430.00" cy="440.01" r="4" fill="#ff7f0e" /><circle cx="520.00" cy="424.99" r="4" fill="#ff7f0e" /><circle cx="610.00" cy="479.72" r="4" fill="#ff7f0e" /><circle cx="700.00" cy="501.63" r="4" fill="#ff7f0e" /><circle cx="790.00" cy="503.67" r="4" fill="#ff7f0e" /><circle cx="880.00" cy="537.24" r="4" fill="#ff7f0e" /><circle cx="970.00" cy="530.08" r="4" fill="#ff7f0e" /><circle cx="1060.00" cy="540.00" r="4" fill="#ff7f0e" /><circle cx="1150.00" cy="516.65" r="4" fill="#ff7f0e" /><circle cx="1240.00" cy="516.65" r="4" fill="#ff7f0e" /><circle cx="70.00" cy="325.19" r="4" fill="#2ca02c" /><circle cx="160.00" cy="281.22" r="4" fill="#2ca02c" /><circle cx="250.00" cy="276.29" r="4" fill="#2ca02c" /><circle cx="340.00" cy="300.95" r="4" fill="#2ca02c" /><circle cx="430.00" cy="291.56" r="4" fill="#2ca02c" /><circle cx="520.00" cy="281.72" r="4" fill="#2ca02c" /><circle cx="610.00" cy="277.55" r="4" fill="#2ca02c" /><circle cx="700.00" cy="307.83" r="4" fill="#2ca02c" /><circle cx="790.00" cy="352.94" r="4" fill="#2ca02c" /><circle cx="880.00" cy="380.51" r="4" fill="#2ca02c" /><circle cx="970.00" cy="353.42" r="4" fill="#2ca02c" /><circle cx="1060.00" cy="330.71" r="4" fill="#2ca02c" /><circle cx="1150.00" cy="309.42" r="4" fill="#2ca02c" /><circle cx="1240.00" cy="309.42" r="4" fill="#2ca02c" />
  <circle cx="80" cy="60" r="4" fill="#1f77b4" /><text x="92" y="64" font-size="13" font-family="Arial, sans-serif" fill="#111">long_equity_curve</text><circle cx="80" cy="84" r="4" fill="#ff7f0e" /><text x="92" y="88" font-size="13" font-family="Arial, sans-serif" fill="#111">short_equity_curve</text><circle cx="80" cy="108" r="4" fill="#2ca02c" /><text x="92" y="112" font-size="13" font-family="Arial, sans-serif" fill="#111">ls_equity_curve</text>
  <text x="70.00" y="624" font-size="10" text-anchor="middle" transform="rotate(-45 70.00,624)" fill="#333">2022-12-31</text><text x="160.00" y="624" font-size="10" text-anchor="middle" transform="rotate(-45 160.00,624)" fill="#333">2023-03-31</text><text x="250.00" y="624" font-size="10" text-anchor="middle" transform="rotate(-45 250.00,624)" fill="#333">2023-06-30</text><text x="340.00" y="624" font-size="10" text-anchor="middle" transform="rotate(-45 340.00,624)" fill="#333">2023-09-30</text><text x="430.00" y="624" font-size="10" text-anchor="middle" transform="rotate(-45 430.00,624)" fill="#333">2023-12-31</text><text x="520.00" y="624" font-size="10" text-anchor="middle" transform="rotate(-45 520.00,624)" fill="#333">2024-03-31</text><text x="610.00" y="624" font-size="10" text-anchor="middle" transform="rotate(-45 610.00,624)" fill="#333">2024-06-30</text><text x="700.00" y="624" font-size="10" text-anchor="middle" transform="rotate(-45 700.00,624)" fill="#333">2024-09-30</text><text x="790.00" y="624" font-size="10" text-anchor="middle" transform="rotate(-45 790.00,624)" fill="#333">2024-12-31</text><text x="880.00" y="624" font-size="10" text-anchor="middle" transform="rotate(-45 880.00,624)" fill="#333">2025-03-31</text><text x="970.00" y="624" font-size="10" text-anchor="middle" transform="rotate(-45 970.00,624)" fill="#333">2025-06-30</text><text x="1060.00" y="624" font-size="10" text-anchor="middle" transform="rotate(-45 1060.00,624)" fill="#333">2025-09-30</text><text x="1150.00" y="624" font-size="10" text-anchor="middle" transform="rotate(-45 1150.00,624)" fill="#333">2025-12-31</text><text x="1240.00" y="624" font-size="10" text-anchor="middle" transform="rotate(-45 1240.00,624)" fill="#333">2026-03-31</text>
  <text x="640.00" y="668" font-size="13" text-anchor="middle" font-family="Arial, sans-serif" fill="#111">Quarter End</text>
  <text x="22" y="340.00" font-size="13" text-anchor="middle" transform="rotate(-90 22,340.00)" font-family="Arial, sans-serif" fill="#111">NAV</text>
</svg>