<svg xmlns="http://www.w3.org/2000/svg" width="1280" height="680">
  <rect width="100%" height="100%" fill="white" />
  <text x="70" y="24" font-size="18" font-family="Arial, sans-serif" fill="#111">Quarterly Returns</text>
  <text x="70" y="46" font-size="13" font-family="Arial, sans-serif" fill="#555">Quarterly long, short, and long-short strategy returns</text>

  <line x1="70" y1="540" x2="1240" y2="540" stroke="#999" />
  <line x1="70" y1="40" x2="70" y2="540" stroke="#999" />
  <line x1="70" y1="540.00" x2="1240" y2="540.00" stroke="#ececec" /><text x="60" y="544.00" font-size="11" text-anchor="end" font-family="Arial, sans-serif" fill="#444">-14.2%</text><line x1="70" y1="440.00" x2="1240" y2="440.00" stroke="#ececec" /><text x="60" y="444.00" font-size="11" text-anchor="end" font-family="Arial, sans-serif" fill="#444">-9.1%</text><line x1="70" y1="340.00" x2="1240" y2="340.00" stroke="#ececec" /><text x="60" y="344.00" font-size="11" text-anchor="end" font-family="Arial, sans-serif" fill="#444">-4.0%</text><line x1="70" y1="240.00" x2="1240" y2="240.00" stroke="#ececec" /><text x="60" y="244.00" font-size="11" text-anchor="end" font-family="Arial, sans-serif" fill="#444">1.1%</text><line x1="70" y1="140.00" x2="1240" y2="140.00" stroke="#ececec" /><text x="60" y="144.00" font-size="11" text-anchor="end" font-family="Arial, sans-serif" fill="#444">6.2%</text><line x1="70" y1="40.00" x2="1240" y2="40.00" stroke="#ececec" /><text x="60" y="44.00" font-size="11" text-anchor="end" font-family="Arial, sans-serif" fill="#444">11.3%</text>
  <line x1="70" y1="262.04" x2="1240" y2="262.04" stroke="#d0d0d0" stroke-dasharray="4,4" />
  <polyline fill="none" stroke="#1f77b4" stroke-width="2.5" points="70.00,262.04 160.00,40.00 250.00,340.65 340.00,106.23 430.00,78.80 520.00,259.25 610.00,74.41 700.00,339.29 790.00,487.72 880.00,296.64 970.00,133.97 1060.00,101.26 1150.00,235.49 1240.00,262.04" /><polyline fill="none" stroke="#ff7f0e" stroke-width="2.5" points="70.00,262.04 160.00,251.97 250.00,158.86 340.00,540.00 430.00,397.27 520.00,215.14 610.00,428.90 700.00,335.04 790.00,269.09 880.00,378.62 970.00,235.61 1060.00,298.19 1150.00,175.39 1240.00,262.04" /><polyline fill="none" stroke="#2ca02c" stroke-width="2.5" points="70.00,262.04 160.00,145.98 250.00,249.76 340.00,323.12 430.00,238.04 520.00,237.19 610.00,251.65 700.00,337.16 790.00,378.41 880.00,337.63 970.00,184.79 1060.00,199.73 1150.00,205.44 1240.00,262.04" />
  <circle cx="70.00" cy="262.04" r="4" fill="#1f77b4" /><circle cx="160.00" cy="40.00" r="4" fill="#1f77b4" /><circle cx="250.00" cy="340.65" r="4" fill="#1f77b4" /><circle cx="340.00" cy="106.23" r="4" fill="#1f77b4" /><circle cx="430.00" cy="78.80" r="4" fill="#1f77b4" /><circle cx="520.00" cy="259.25" r="4" fill="#1f77b4" /><circle cx="610.00" cy="74.41" r="4" fill="#1f77b4" /><circle cx="700.00" cy="339.29" r="4" fill="#1f77b4" /><circle cx="790.00" cy="487.72" r="4" fill="#1f77b4" /><circle cx="880.00" cy="296.64" r="4" fill="#1f77b4" /><circle cx="970.00" cy="133.97" r="4" fill="#1f77b4" /><circle cx="1060.00" cy="101.26" r="4" fill="#1f77b4" /><circle cx="1150.00" cy="235.49" r="4" fill="#1f77b4" /><circle cx="1240.00" cy="262.04" r="4" fill="#1f77b4" /><circle cx="70.00" cy="262.04" r="4" fill="#ff7f0e" /><circle cx="160.00" cy="251.97" r="4" fill="#ff7f0e" /><circle cx="250.00" cy="158.86" r="4" fill="#ff7f0e" /><circle cx="340.00" cy="540.00" r="4" fill="#ff7f0e" /><circle cx="430.00" cy="397.27" r="4" fill="#ff7f0e" /><circle cx="520.00" cy="215.14" r="4" fill="#ff7f0e" /><circle cx="610.00" cy="428.90" r="4" fill="#ff7f0e" /><circle cx="700.00" cy="335.04" r="4" fill="#ff7f0e" /><circle cx="790.00" cy="269.09" r="4" fill="#ff7f0e" /><circle cx="880.00" cy="378.62" r="4" fill="#ff7f0e" /><circle cx="970.00" cy="235.61" r="4" fill="#ff7f0e" /><circle cx="1060.00" cy="298.19" r="4" fill="#ff7f0e" /><circle cx="1150.00" cy="175.39" r="4" fill="#ff7f0e" /><circle cx="1240.00" cy="262.04" r="4" fill="#ff7f0e" /><circle cx="70.00" cy="262.04" r="4" fill="#2ca02c" /><circle cx="160.00" cy="145.98" r="4" fill="#2ca02c" /><circle cx="250.00" cy="249.76" r="4" fill="#2ca02c" /><circle cx="340.00" cy="323.12" r="4" fill="#2ca02c" /><circle cx="430.00" cy="238.04" r="4" fill="#2ca02c" /><circle cx="520.00" cy="237.19" r="4" fill="#2ca02c" /><circle cx="610.00" cy="251.65" r="4" fill="#2ca02c" /><circle cx="700.00" cy="337.16" r="4" fill="#2ca02c" /><circle cx="790.00" cy="378.41" r="4" fill="#2ca02c" /><circle cx="880.00" cy="337.63" r="4" fill="#2ca02c" /><circle cx="970.00" cy="184.79" r="4" fill="#2ca02c" /><circle cx="1060.00" cy="199.73" r="4" fill="#2ca02c" /><circle cx="1150.00" cy="205.44" r="4" fill="#2ca02c" /><circle cx="1240.00" cy="262.04" r="4" fill="#2ca02c" />
  <circle cx="80" cy="60" r="4" fill="#1f77b4" /><text x="92" y="64" font-size="13" font-family="Arial, sans-serif" fill="#111">long_return</text><circle cx="80" cy="84" r="4" fill="#ff7f0e" /><text x="92" y="88" font-size="13" font-family="Arial, sans-serif" fill="#111">short_return</text><circle cx="80" cy="108" r="4" fill="#2ca02c" /><text x="92" y="112" font-size="13" font-family="Arial, sans-serif" fill="#111">long_short_return</text>
  <text x="70.00" y="624" font-size="10" text-anchor="middle" transform="rotate(-45 70.00,624)" fill="#333">2022-12-31</text><text x="160.00" y="624" font-size="10" text-anchor="middle" transform="rotate(-45 160.00,624)" fill="#333">2023-03-31</text><text x="250.00" y="624" font-size="10" text-anchor="middle" transform="rotate(-45 250.00,624)" fill="#333">2023-06-30</text><text x="340.00" y="624" font-size="10" text-anchor="middle" transform="rotate(-45 340.00,624)" fill="#333">2023-09-30</text><text x="430.00" y="624" font-size="10" text-anchor="middle" transform="rotate(-45 430.00,624)" fill="#333">2023-12-31</text><text x="520.00" y="624" font-size="10" text-anchor="middle" transform="rotate(-45 520.00,624)" fill="#333">2024-03-31</text><text x="610.00" y="624" font-size="10" text-anchor="middle" transform="rotate(-45 610.00,624)" fill="#333">2024-06-30</text><text x="700.00" y="624" font-size="10" text-anchor="middle" transform="rotate(-45 700.00,624)" fill="#333">2024-09-30</text><text x="790.00" y="624" font-size="10" text-anchor="middle" transform="rotate(-45 790.00,624)" fill="#333">2024-12-31</text><text x="880.00" y="624" font-size="10" text-anchor="middle" transform="rotate(-45 880.00,624)" fill="#333">2025-03-31</text><text x="970.00" y="624" font-size="10" text-anchor="middle" transform="rotate(-45 970.00,624)" fill="#333">2025-06-30</text><text x="1060.00" y="624" font-size="10" text-anchor="middle" transform="rotate(-45 1060.00,624)" fill="#333">2025-09-30</text><text x="1150.00" y="624" font-size="10" text-anchor="middle" transform="rotate(-45 1150.00,624)" fill="#333">2025-12-31</text><text x="1240.00" y="624" font-size="10" text-anchor="middle" transform="rotate(-45 1240.00,624)" fill="#333">2026-03-31</text>
  <text x="640.00" y="668" font-size="13" text-anchor="middle" font-family="Arial, sans-serif" fill="#111">Quarter End</text>
  <text x="22" y="340.00" font-size="13" text-anchor="middle" transform="rotate(-90 22,340.00)" font-family="Arial, sans-serif" fill="#111">Quarterly Return</text>
</svg>