<svg xmlns="http://www.w3.org/2000/svg" width="1280" height="680">
  <rect width="100%" height="100%" fill="white" />
  <text x="70" y="24" font-size="18" font-family="Arial, sans-serif" fill="#111">Quarterly Returns</text>
  <text x="70" y="46" font-size="13" font-family="Arial, sans-serif" fill="#555">Quarterly long, short, and long-short strategy returns</text>

  <line x1="70" y1="540" x2="1240" y2="540" stroke="#999" />
  <line x1="70" y1="40" x2="70" y2="540" stroke="#999" />
  <line x1="70" y1="540.00" x2="1240" y2="540.00" stroke="#ececec" /><text x="60" y="544.00" font-size="11" text-anchor="end" font-family="Arial, sans-serif" fill="#444">-19.6%</text><line x1="70" y1="440.00" x2="1240" y2="440.00" stroke="#ececec" /><text x="60" y="444.00" font-size="11" text-anchor="end" font-family="Arial, sans-serif" fill="#444">-11.6%</text><line x1="70" y1="340.00" x2="1240" y2="340.00" stroke="#ececec" /><text x="60" y="344.00" font-size="11" text-anchor="end" font-family="Arial, sans-serif" fill="#444">-3.5%</text><line x1="70" y1="240.00" x2="1240" y2="240.00" stroke="#ececec" /><text x="60" y="244.00" font-size="11" text-anchor="end" font-family="Arial, sans-serif" fill="#444">4.5%</text><line x1="70" y1="140.00" x2="1240" y2="140.00" stroke="#ececec" /><text x="60" y="144.00" font-size="11" text-anchor="end" font-family="Arial, sans-serif" fill="#444">12.6%</text><line x1="70" y1="40.00" x2="1240" y2="40.00" stroke="#ececec" /><text x="60" y="44.00" font-size="11" text-anchor="end" font-family="Arial, sans-serif" fill="#444">20.6%</text>
  <line x1="70" y1="296.15" x2="1240" y2="296.15" stroke="#d0d0d0" stroke-dasharray="4,4" />
  <polyline fill="none" stroke="#1f77b4" stroke-width="2.5" points="70.00,296.15 160.00,48.21 250.00,314.98 340.00,211.88 430.00,195.80 520.00,337.35 610.00,315.79 700.00,353.32 790.00,325.83 880.00,336.91 970.00,194.87 1060.00,232.33 1150.00,212.91 1240.00,296.15" /><polyline fill="none" stroke="#ff7f0e" stroke-width="2.5" points="70.00,296.15 160.00,398.96 250.00,221.60 340.00,540.00 430.00,418.61 520.00,110.66 610.00,152.67 700.00,225.16 790.00,227.08 880.00,534.92 970.00,418.43 1060.00,212.20 1150.00,40.00 1240.00,296.15" /><polyline fill="none" stroke="#2ca02c" stroke-width="2.5" points="70.00,296.15 160.00,223.59 250.00,268.29 340.00,375.94 430.00,307.20 520.00,224.00 610.00,234.23 700.00,289.24 790.00,276.45 880.00,435.92 970.00,306.65 1060.00,222.27 1150.00,126.45 1240.00,296.15" />
  <circle cx="70.00" cy="296.15" r="4" fill="#1f77b4" /><circle cx="160.00" cy="48.21" r="4" fill="#1f77b4" /><circle cx="250.00" cy="314.98" r="4" fill="#1f77b4" /><circle cx="340.00" cy="211.88" r="4" fill="#1f77b4" /><circle cx="430.00" cy="195.80" r="4" fill="#1f77b4" /><circle cx="520.00" cy="337.35" r="4" fill="#1f77b4" /><circle cx="610.00" cy="315.79" r="4" fill="#1f77b4" /><circle cx="700.00" cy="353.32" r="4" fill="#1f77b4" /><circle cx="790.00" cy="325.83" r="4" fill="#1f77b4" /><circle cx="880.00" cy="336.91" r="4" fill="#1f77b4" /><circle cx="970.00" cy="194.87" r="4" fill="#1f77b4" /><circle cx="1060.00" cy="232.33" r="4" fill="#1f77b4" /><circle cx="1150.00" cy="212.91" r="4" fill="#1f77b4" /><circle cx="1240.00" cy="296.15" r="4" fill="#1f77b4" /><circle cx="70.00" cy="296.15" r="4" fill="#ff7f0e" /><circle cx="160.00" cy="398.96" r="4" fill="#ff7f0e" /><circle cx="250.00" cy="221.60" r="4" fill="#ff7f0e" /><circle cx="340.00" cy="540.00" r="4" fill="#ff7f0e" /><circle cx="430.00" cy="418.61" r="4" fill="#ff7f0e" /><circle cx="520.00" cy="110.66" r="4" fill="#ff7f0e" /><circle cx="610.00" cy="152.67" r="4" fill="#ff7f0e" /><circle cx="700.00" cy="225.16" r="4" fill="#ff7f0e" /><circle cx="790.00" cy="227.08" r="4" fill="#ff7f0e" /><circle cx="880.00" cy="534.92" r="4" fill="#ff7f0e" /><circle cx="970.00" cy="418.43" r="4" fill="#ff7f0e" /><circle cx="1060.00" cy="212.20" r="4" fill="#ff7f0e" /><circle cx="1150.00" cy="40.00" r="4" fill="#ff7f0e" /><circle cx="1240.00" cy="296.15" r="4" fill="#ff7f0e" /><circle cx="70.00" cy="296.15" r="4" fill="#2ca02c" /><circle cx="160.00" cy="223.59" r="4" fill="#2ca02c" /><circle cx="250.00" cy="268.29" r="4" fill="#2ca02c" /><circle cx="340.00" cy="375.94" r="4" fill="#2ca02c" /><circle cx="430.00" cy="307.20" r="4" fill="#2ca02c" /><circle cx="520.00" cy="224.00" r="4" fill="#2ca02c" /><circle cx="610.00" cy="234.23" r="4" fill="#2ca02c" /><circle cx="700.00" cy="289.24" r="4" fill="#2ca02c" /><circle cx="790.00" cy="276.45" r="4" fill="#2ca02c" /><circle cx="880.00" cy="435.92" r="4" fill="#2ca02c" /><circle cx="970.00" cy="306.65" r="4" fill="#2ca02c" /><circle cx="1060.00" cy="222.27" r="4" fill="#2ca02c" /><circle cx="1150.00" cy="126.45" r="4" fill="#2ca02c" /><circle cx="1240.00" cy="296.15" r="4" fill="#2ca02c" />
  <circle cx="80" cy="60" r="4" fill="#1f77b4" /><text x="92" y="64" font-size="13" font-family="Arial, sans-serif" fill="#111">long_return</text><circle cx="80" cy="84" r="4" fill="#ff7f0e" /><text x="92" y="88" font-size="13" font-family="Arial, sans-serif" fill="#111">short_return</text><circle cx="80" cy="108" r="4" fill="#2ca02c" /><text x="92" y="112" font-size="13" font-family="Arial, sans-serif" fill="#111">long_short_return</text>
  <text x="70.00" y="624" font-size="10" text-anchor="middle" transform="rotate(-45 70.00,624)" fill="#333">2022-12-31</text><text x="160.00" y="624" font-size="10" text-anchor="middle" transform="rotate(-45 160.00,624)" fill="#333">2023-03-31</text><text x="250.00" y="624" font-size="10" text-anchor="middle" transform="rotate(-45 250.00,624)" fill="#333">2023-06-30</text><text x="340.00" y="624" font-size="10" text-anchor="middle" transform="rotate(-45 340.00,624)" fill="#333">2023-09-30</text><text x="430.00" y="624" font-size="10" text-anchor="middle" transform="rotate(-45 430.00,624)" fill="#333">2023-12-31</text><text x="520.00" y="624" font-size="10" text-anchor="middle" transform="rotate(-45 520.00,624)" fill="#333">2024-03-31</text><text x="610.00" y="624" font-size="10" text-anchor="middle" transform="rotate(-45 610.00,624)" fill="#333">2024-06-30</text><text x="700.00" y="624" font-size="10" text-anchor="middle" transform="rotate(-45 700.00,624)" fill="#333">2024-09-30</text><text x="790.00" y="624" font-size="10" text-anchor="middle" transform="rotate(-45 790.00,624)" fill="#333">2024-12-31</text><text x="880.00" y="624" font-size="10" text-anchor="middle" transform="rotate(-45 880.00,624)" fill="#333">2025-03-31</text><text x="970.00" y="624" font-size="10" text-anchor="middle" transform="rotate(-45 970.00,624)" fill="#333">2025-06-30</text><text x="1060.00" y="624" font-size="10" text-anchor="middle" transform="rotate(-45 1060.00,624)" fill="#333">2025-09-30</text><text x="1150.00" y="624" font-size="10" text-anchor="middle" transform="rotate(-45 1150.00,624)" fill="#333">2025-12-31</text><text x="1240.00" y="624" font-size="10" text-anchor="middle" transform="rotate(-45 1240.00,624)" fill="#333">2026-03-31</text>
  <text x="640.00" y="668" font-size="13" text-anchor="middle" font-family="Arial, sans-serif" fill="#111">Quarter End</text>
  <text x="22" y="340.00" font-size="13" text-anchor="middle" transform="rotate(-90 22,340.00)" font-family="Arial, sans-serif" fill="#111">Quarterly Return</text>
</svg>